<svg xmlns="http://www.w3.org/2000/svg" width="563.376" height="640.237" viewBox="0 0 563.376 640.237">
  <path id="Path_266808" data-name="Path 266808" d="M563.376,258.5c-23.4-17.769-45.334-38-70.453-52.864-98.3-58.2-198.59-113.094-296.084-172.588C153.976,6.89,116.835,5.269,76.4,34.463,56.752,48.664,34.678,59.525,1.768,78.93c146.25,84.8,285.084,165.3,437.325,253.582C289.218,419.383,149.425,500.426,0,587.043c45,24.079,82.5,47.544,122.875,63.938,14.5,5.893,38.476-.671,53.764-9.29q174.184-98.129,346.125-200.2c16.426-9.756,27.214-29.014,40.612-43.869V258.5" transform="translate(0 -12.998)" fill="#3626d8"/>
</svg>
