<svg xmlns="http://www.w3.org/2000/svg" width="563.375" height="640.237" viewBox="0 0 563.375 640.237">
  <path id="Path_183804" data-name="Path 183804" d="M0,258.5c23.4-17.769,45.334-38,70.453-52.864,98.3-58.2,198.59-113.094,296.084-172.588,42.862-26.158,80-27.778,120.436,1.416,19.651,14.2,41.725,25.061,74.635,44.467-146.25,84.8-285.084,165.3-437.325,253.582C274.158,419.383,413.95,500.426,563.375,587.043c-45,24.079-82.5,47.544-122.875,63.938-14.5,5.893-38.476-.671-53.764-9.29q-174.184-98.129-346.125-200.2C24.185,431.733,13.4,412.475,0,397.62V258.5" transform="translate(0 -12.998)" fill="#3626d8"/>
</svg>
