<svg id="Group_243588" data-name="Group 243588" xmlns="http://www.w3.org/2000/svg" xmlns:xlink="http://www.w3.org/1999/xlink" width="203.063" height="20.296" viewBox="0 0 203.063 20.296">
  <defs>
    <clipPath id="clip-path">
      <rect id="Rectangle_27527" data-name="Rectangle 27527" width="203.063" height="20.296" fill="none"/>
    </clipPath>
  </defs>
  <g id="Group_243589" data-name="Group 243589" clip-path="url(#clip-path)">
    <path id="Path_266798" data-name="Path 266798" d="M1411.8,12.633c-.286-.013-.517-.032-.747-.032-1.319,0-2.639.008-3.958-.007-.625-.007-.811-.262-.688-.865s.255-1.223.382-1.835a.878.878,0,0,1,.955-.779c2.639,0,5.278-.007,7.917,0,.656,0,.851.261.707.9-.368,1.64-.671,3.3-1.15,4.908a6.741,6.741,0,0,1-5.782,5.227,17.611,17.611,0,0,1-2.16.232c-1.795.033-3.591-.027-5.385.025a9.866,9.866,0,0,1-3.29-.552,4.539,4.539,0,0,1-3.191-5.145c.13-1.131.37-2.252.607-3.368.4-1.9.78-3.8,1.276-5.676A6.761,6.761,0,0,1,1404,.225c2.763-.107,5.535-.03,8.3.024a5.992,5.992,0,0,1,1.957.409c2.683,1.014,3.237,3.249,2.947,5.6a.779.779,0,0,1-.857.714c-.822-.019-1.644-.015-2.466,0-.54.009-.738-.269-.717-.764.005-.129.029-.257.036-.387a1.468,1.468,0,0,0-1.519-1.76c-.258-.023-.518-.041-.777-.041-2.206,0-4.413-.013-6.619,0-1.957.014-2.731.549-3.19,2.441-.6,2.471-1.141,4.959-1.593,7.46-.351,1.945.21,2.506,2.2,2.507q3.277,0,6.554,0c2,0,2.878-.707,3.306-2.655.078-.354.146-.711.234-1.142" transform="translate(-1214.217 -0.149)" fill="#1a1818"/>
    <path id="Path_266799" data-name="Path 266799" d="M986.628,20.386q-3.212,0-6.425,0c-.8,0-1.067-.3-.9-1.079q1.214-5.825,2.454-11.644c.459-2.172.924-4.343,1.376-6.517.169-.813.337-.977,1.169-.978,3.915,0,7.831-.035,11.746.023a8.791,8.791,0,0,1,2.908.535,4.225,4.225,0,0,1,2.728,4.73c-.278,2.369-.828,4.707-1.274,7.056a14.232,14.232,0,0,1-1.561,4.5,5.957,5.957,0,0,1-4.605,3.1c-1.252.161-2.519.224-3.782.267s-2.552.01-3.828.01m-2.713-4.023c.1.045.156.092.213.092,2.983-.01,5.967.016,8.948-.054a3.048,3.048,0,0,0,3.038-2.614c.519-2.179,1.03-4.363,1.437-6.565.456-2.463-.212-3.206-2.715-3.215-2.53-.008-5.06.016-7.589-.016a.721.721,0,0,0-.859.69c-.807,3.881-1.639,7.757-2.473,11.682" transform="translate(-852.121 -0.136)" fill="#1a1818"/>
    <path id="Path_266800" data-name="Path 266800" d="M143.537,14.783l1.813,3.753a10.329,10.329,0,0,1,.47.992.652.652,0,0,1-.6.908,18,18,0,0,1-2.784-.032,1.565,1.565,0,0,1-.921-.846c-.629-1.3-1.188-2.631-1.738-3.965a.707.707,0,0,0-.76-.527q-3.049.026-6.1,0c-.408,0-.607.091-.686.545-.214,1.231-.5,2.448-.753,3.673-.155.757-.417,1.258-1.447,1.169-.58-.05-1.167,0-1.751-.01-.686-.007-.989-.37-.85-1.024q1.946-9.168,3.889-18.338A.92.92,0,0,1,132.33.226c3.74.022,7.481.013,11.22.076a8.773,8.773,0,0,1,2.41.449,4.214,4.214,0,0,1,3.347,4.372,12.366,12.366,0,0,1-2.114,7.273,5.922,5.922,0,0,1-3.006,2.151l-.65.235m-10.377-3.51c1.752,0,3.394.017,5.035-.006,1.188-.016,2.38-.036,3.562-.145a3.034,3.034,0,0,0,2.536-1.465,7.683,7.683,0,0,0,.948-3.527,1.544,1.544,0,0,0-1.188-1.713,5.977,5.977,0,0,0-1.709-.309c-2.228-.044-4.456-.034-6.685-.042-.93,0-.941,0-1.144.923-.451,2.06-.89,4.123-1.355,6.284" transform="translate(-110.857 -0.196)" fill="#1a1818"/>
    <path id="Path_266801" data-name="Path 266801" d="M820.1.279c1.556,0,3.115-.047,4.668.021a6.824,6.824,0,0,1,2.074.462,4.472,4.472,0,0,1,2.849,4.985c-.19,1.493-.5,2.975-.832,4.444a50.3,50.3,0,0,1-1.483,5.744,6.246,6.246,0,0,1-5.271,4.245,23.7,23.7,0,0,1-3.066.258c-2.119.037-4.247.122-6.354-.042a9.624,9.624,0,0,1-3.417-1.025,3.745,3.745,0,0,1-2.073-3.628,25.133,25.133,0,0,1,.528-4.02c.367-1.925.772-3.846,1.26-5.744.986-3.829,3.521-5.744,7.483-5.75q1.816,0,3.633,0c0,.016,0,.032,0,.048m-.32,3.821s0,.008,0,.012c-1.471,0-2.943-.036-4.412.012a2.353,2.353,0,0,0-2.255,1.658,15.908,15.908,0,0,0-.571,2.051c-.453,2.086-.9,4.174-1.307,6.269-.315,1.617.282,2.327,1.919,2.378.173.005.346,0,.519,0,2.142,0,4.284.005,6.426,0a14.742,14.742,0,0,0,1.682-.082,2.272,2.272,0,0,0,1.98-1.557,19.581,19.581,0,0,0,.667-2.493c.44-2.066.889-4.132,1.247-6.213.23-1.335-.334-1.98-1.677-2.024-1.4-.046-2.812-.01-4.218-.01" transform="translate(-702.397 -0.201)" fill="#1a1818"/>
    <path id="Path_266802" data-name="Path 266802" d="M1219.54,5.963q-.63,3-1.26,6c-.5,2.406-1,4.813-1.508,7.218-.2.934-.424,1.307-1.526,1.226-.538-.04-1.081,0-1.622-.007-.782-.005-1.056-.34-.9-1.1q.871-4.146,1.748-8.291c.71-3.332,1.438-6.66,2.134-9.995a.912.912,0,0,1,1.026-.838c.714.009,1.429.024,2.142,0a1.306,1.306,0,0,1,1.3.757q3.7,6.531,7.441,13.045c.083.145.181.282.362.561.267-1.211.509-2.287.74-3.365q1.091-5.092,2.171-10.186a.884.884,0,0,1,.987-.806c.736.014,1.471-.006,2.207.006.754.011.939.274.777,1.028q-.789,3.668-1.568,7.338-1.152,5.409-2.3,10.818c-.191.887-.406,1.033-1.333,1.034a12.84,12.84,0,0,0-1.492.011,1.561,1.561,0,0,1-1.655-.954q-2.461-4.334-4.938-8.66-1.392-2.439-2.785-4.877l-.153.044" transform="translate(-1055.246 -0.148)" fill="#1a1818"/>
    <path id="Path_266803" data-name="Path 266803" d="M646.734.266c1.427,0,2.858-.07,4.28.016,2.449.148,4.12,1.421,4.651,3.453a6.823,6.823,0,0,1-.118,3.643,1.091,1.091,0,0,1-.793.585,17.975,17.975,0,0,1-2.463.019c-.656-.027-.787-.239-.669-.875a11.374,11.374,0,0,0,.192-1.212c.088-1.167-.416-1.762-1.588-1.807-1.21-.047-2.422-.033-3.633-.036-1.233,0-2.467-.026-3.7.014-1.722.056-2.5.635-2.907,2.3-.522,2.135-.947,4.294-1.405,6.444-.112.527-.215,1.058-.284,1.591-.172,1.326.34,1.963,1.685,2.043.8.048,1.6.016,2.4.017q2.206,0,4.413,0c2.2,0,3.14-.8,3.5-2.982.187-1.133.327-1.253,1.466-1.254.627,0,1.255-.016,1.882,0,.665.022.9.282.71.893a27.685,27.685,0,0,1-1.386,3.942,6.05,6.05,0,0,1-4.4,3.1c-2.014.473-4.04.162-6.057.258a11.83,11.83,0,0,1-2.333-.016,14.512,14.512,0,0,1-3.361-.789c-1.971-.819-2.914-2.782-2.526-5.162.353-2.168.869-4.31,1.292-6.468A13.5,13.5,0,0,1,637.049,3.6a6.875,6.875,0,0,1,6.31-3.382c1.125-.012,2.25,0,3.374,0,0,.018,0,.036,0,.054" transform="translate(-551.871 -0.182)" fill="#1a1818"/>
    <path id="Path_266804" data-name="Path 266804" d="M299.643.03c.389,0,.778,0,1.168,0,.861,0,1.034.133,1.261.978q2.425,9.02,4.844,18.041c.227.847-.051,1.2-.941,1.2-.692,0-1.386-.035-2.075.01a1.043,1.043,0,0,1-1.187-.915c-.184-.709-.371-1.418-.531-2.133a.605.605,0,0,0-.694-.568c-3.481.018-6.963,0-10.444.029a1.134,1.134,0,0,0-.767.431c-.581.777-1.1,1.6-1.642,2.4a1.436,1.436,0,0,1-1.378.754c-.754-.05-1.515.024-2.269-.029a1.2,1.2,0,0,1-.846-.39c-.109-.173.043-.607.2-.84q3.735-5.4,7.505-10.784c1.665-2.389,3.351-4.766,4.978-7.181A1.883,1.883,0,0,1,298.8.024a5.975,5.975,0,0,0,.842.006m-6.826,13.284h8.393L298.969,4.24l-6.152,9.074" transform="translate(-247.219 0)" fill="#1a1818"/>
    <path id="Path_266805" data-name="Path 266805" d="M483.819,16.174c1.019-1.568,1.934-2.973,2.846-4.381Q490.2,6.333,493.733.867a1.31,1.31,0,0,1,1.23-.676c.8.021,1.6-.022,2.4.018a4.048,4.048,0,0,1,.939.278,3.506,3.506,0,0,1-.284.872c-1.721,2.639-3.463,5.265-5.2,7.895q-3.391,5.132-6.778,10.266a1.7,1.7,0,0,1-1.689.912,23.886,23.886,0,0,0-2.594-.009.99.99,0,0,1-1.093-.863Q479.225,13.52,477.8,7.478c-.5-2.1-.995-4.195-1.475-6.3-.176-.769.007-.975.8-.984.606-.007,1.211,0,1.817,0,1.024,0,1.113.065,1.352,1.078Q481.4,5.961,482.5,10.65c.42,1.78.847,3.559,1.315,5.524" transform="translate(-414.432 -0.165)" fill="#1a1818"/>
    <path id="Path_266806" data-name="Path 266806" d="M6.76,4.08H4.489c-1.233,0-2.466.011-3.7-.006-.665-.009-.9-.333-.745-.959C.191,2.509.339,1.9.477,1.3.706.293.795.215,1.818.214H16.939c.216,0,.433-.01.649.005.586.041.76.267.648.845-.14.72-.313,1.434-.429,2.157a.919.919,0,0,1-1.069.864c-1.774-.016-3.548.017-5.321-.019-.526-.011-.7.181-.8.659C9.71,9.071,8.78,13.413,7.856,17.756c-.126.59-.238,1.184-.378,1.77a1.042,1.042,0,0,1-1.136.911,14.658,14.658,0,0,0-1.816.007c-.936.089-1.174-.5-1-1.249.39-1.724.752-3.454,1.122-5.182.7-3.265,1.392-6.531,2.117-9.935" transform="translate(0 -0.184)" fill="#1a1818"/>
    <path id="Path_266807" data-name="Path 266807" d="M1156.892,20.435h-.843c-.944,0-1.192-.3-1-1.239.3-1.455.613-2.909.922-4.363q1.418-6.67,2.835-13.34c.26-1.232.3-1.278,1.578-1.279.562,0,1.124-.008,1.686,0,.764.013.934.207.781.953q-.75,3.64-1.526,7.276c-.761,3.582-1.536,7.162-2.293,10.745-.224,1.062-.42,1.244-1.494,1.245h-.649" transform="translate(-1005.042 -0.184)" fill="#1a1818"/>
  </g>
</svg>
