<svg xmlns="http://www.w3.org/2000/svg" width="1032.94" height="562.088" viewBox="0 0 1032.94 562.088">
  <g id="Group_250949" data-name="Group 250949" transform="translate(-976.967 -754.501)" opacity="0.25">
    <path id="Path_267890" data-name="Path 267890" d="M-128.989,1622s-233.372,12.74-364.228,182.221c-60.063,77.792-267.051,48.02-379.227,81.667-245.795,86.094-278.568,196.785-220.045,270.579,51.5,54.116,166.907,25.828,316.022-86.093,54.129-40.627,86.613-56.576,234.09,51.656,161.522,29.517,211.149-129.939,325.385-125.45s82.868,188.174,131.559,143.405" transform="translate(2095 -867)" fill="none" stroke="#000" stroke-width="1" stroke-dasharray="4 8"/>
    <circle id="Ellipse_16031" data-name="Ellipse 16031" cx="6" cy="6" r="6" transform="translate(1835.568 770)"/>
    <circle id="Ellipse_16032" data-name="Ellipse 16032" cx="6" cy="6" r="6" transform="translate(1497.568 980)"/>
    <circle id="Ellipse_16033" data-name="Ellipse 16033" cx="6" cy="6" r="6" transform="translate(1035.568 1109)"/>
    <circle id="Ellipse_16034" data-name="Ellipse 16034" cx="6" cy="6" r="6" transform="translate(1197.568 1270)"/>
    <circle id="Ellipse_16035" data-name="Ellipse 16035" cx="6" cy="6" r="6" transform="translate(1656.568 1246)"/>
    <circle id="Ellipse_16036" data-name="Ellipse 16036" cx="6" cy="6" r="6" transform="translate(1942.568 1169)"/>
  </g>
</svg>
