<svg xmlns="http://www.w3.org/2000/svg" width="161.087" height="46.005" viewBox="0 0 161.087 46.005">
  <g id="Group_50385" data-name="Group 50385" transform="translate(0.75 1.035)">
    <path id="Path_78416" data-name="Path 78416" d="M4.556,22.34a.747.747,0,0,1-.3-1.434,54.036,54.036,0,0,0,12.074-7.423c4.168-3.477,6.1-6.636,5.443-8.894-.675-2.319-2.8-3.562-6.5-3.8a52.269,52.269,0,0,0-10.852,1c-1.615.262-3.141.51-4.36.622a.747.747,0,0,1-.813-.676A.747.747,0,0,1-.069.919C1.1.812,2.6.568,4.189.31A53.339,53.339,0,0,1,15.376-.7,11.624,11.624,0,0,1,20.242.514a5.934,5.934,0,0,1,2.97,3.657c.466,1.6.071,3.4-1.174,5.36a23.189,23.189,0,0,1-4.747,5.1,55.67,55.67,0,0,1-12.44,7.648A.745.745,0,0,1,4.556,22.34Z" transform="matrix(0.834, -0.552, 0.552, 0.834, 128.49, 12.511)" fill="#a2a2a2"/>
    <path id="Path_78417" data-name="Path 78417" d="M2486.925,1850.436a101.748,101.748,0,0,1-21.646-2.389,114.065,114.065,0,0,1-22.941-7.656,107.189,107.189,0,0,1-19.1-11.129,72.793,72.793,0,0,1-13.641-12.78.75.75,0,0,1,1.173-.935c13.153,16.51,43.945,33.388,76.175,33.388q1.714,0,3.43-.064c27.922-1.052,51.734-14.916,68.863-40.093a.75.75,0,1,1,1.24.844c-9.229,13.565-20.34,23.927-33.024,30.8a83.606,83.606,0,0,1-37.023,9.949Q2488.685,1850.435,2486.925,1850.436Z" transform="translate(-2410.18 -1805.466)" fill="#a2a2a2"/>
  </g>
</svg>
