<svg xmlns="http://www.w3.org/2000/svg" xmlns:xlink="http://www.w3.org/1999/xlink" width="458.757" height="210" viewBox="0 0 458.757 210">
  <defs>
    <clipPath id="clip-path">
      <rect id="Rectangle_34438" data-name="Rectangle 34438" width="458.757" height="210" transform="translate(-11321 -8600)" fill="#fff"/>
    </clipPath>
  </defs>
  <g id="Mask_Group_389" data-name="Mask Group 389" transform="translate(11321 8600)" clip-path="url(#clip-path)">
    <g id="Group_223537" data-name="Group 223537" transform="translate(-11345.25 -8599.25)">
      <path id="Path_78420" data-name="Path 78420" d="M1877.747,1900.353c-7.674,0-15.334-.317-22.864-.948a267.039,267.039,0,0,1-56.788-11.038c-8.746-2.707-17.519-5.915-26.075-9.536-8.183-3.464-16.386-7.4-24.379-11.691a326.293,326.293,0,0,1-43.676-28.313,406.6,406.6,0,0,1-67.084-65.642c-8.151-9.966-16.039-20.47-23.443-31.22-5.923-8.6-11.553-17.376-16.732-26.084-8.822-14.835-13.341-24.466-13.385-24.561a.75.75,0,1,1,1.359-.635c.044.1,4.542,9.68,13.336,24.463a476.593,476.593,0,0,0,40.055,57.123c32.487,39.711,86.7,91.84,160.479,114.668a266.242,266.242,0,0,0,79.1,11.914c59.487,0,122.035-19.219,186.843-57.521a.75.75,0,1,1,.763,1.291c-13.108,7.747-26.306,14.812-39.226,21-12.555,6.011-25.193,11.357-37.56,15.889a368.538,368.538,0,0,1-35.9,11.152,324.061,324.061,0,0,1-34.231,6.786,294.007,294.007,0,0,1-32.565,2.791Q1881.767,1900.353,1877.747,1900.353Z" transform="translate(-1584 -1691)" fill="#a2a2a2"/>
      <path id="Path_78421" data-name="Path 78421" d="M7.846,19.465a.749.749,0,0,1-.329-1.423C14.422,14.678,19.5,10.466,20.456,7.31a2.37,2.37,0,0,0-.114-1.936c-.912-1.557-3.073-2.66-6.6-3.373A76.3,76.3,0,0,0,3.388.96C2.165.892,1.01.828-.057.747a.749.749,0,0,1-.69-.8.749.749,0,0,1,.8-.69c1.052.08,2.2.143,3.414.211A77.372,77.372,0,0,1,14.034.532c3.974.8,6.461,2.138,7.6,4.085a3.8,3.8,0,0,1,.255,3.127C20.8,11.335,15.548,15.8,8.173,19.389A.746.746,0,0,1,7.846,19.465Z" transform="translate(202.082 179.213) rotate(45.77)" fill="#a2a2a2"/>
      <path id="Path_78422" data-name="Path 78422" d="M3.889,22.8a.749.749,0,0,1-.481-1.325A60.281,60.281,0,0,0,13.837,10.551c2.269-3.227,3.3-5.891,2.839-7.308C16.168,1.7,14.569.885,11.787.765a46.633,46.633,0,0,0-8.732.872C2,1.807,1.013,1.967.1,2.089a.749.749,0,0,1-.842-.643A.749.749,0,0,1-.1.6C.795.484,1.776.326,2.815.158a47.658,47.658,0,0,1,9.036-.89,9.7,9.7,0,0,1,3.837.823A4.474,4.474,0,0,1,18.1,2.776c.8,2.434-1.211,6.04-3.037,8.637A61.8,61.8,0,0,1,4.369,22.631.746.746,0,0,1,3.889,22.8Z" transform="translate(463.125 148.658) rotate(-3.484)" fill="#a2a2a2"/>
    </g>
  </g>
</svg>
