<svg xmlns="http://www.w3.org/2000/svg" width="93.528" height="112.204" viewBox="0 0 93.528 112.204">
  <g id="Group_223537" data-name="Group 223537" transform="translate(-1350.602 -2415.352)">
    <g id="Group_50365" data-name="Group 50365" transform="translate(1314.498 2452.558)">
      <path id="Ellipse_1951" data-name="Ellipse 1951" d="M5.125-.749A5.874,5.874,0,1,1-.749,5.125,5.881,5.881,0,0,1,5.125-.749Zm0,10.25A4.375,4.375,0,1,0,.749,5.125,4.38,4.38,0,0,0,5.125,9.5Z" transform="translate(87 64)" fill="#a5a5a5"/>
    </g>
    <g id="Group_50378" data-name="Group 50378" transform="translate(-87.001 2416.5)">
      <path id="Path_78429" data-name="Path 78429" d="M0,17.159A1.055,1.055,0,0,1-1.055,16.1V0A1.055,1.055,0,0,1,0-1.055,1.055,1.055,0,0,1,1.055,0V16.1A1.055,1.055,0,0,1,0,17.159Z" transform="matrix(-0.66, -0.751, 0.751, -0.66, 1473.86, 70.539)" fill="#a2a2a2"/>
      <path id="Path_78430" data-name="Path 78430" d="M.529,27.931a.815.815,0,0,1-.814-.8L-.815.016a.815.815,0,0,1,.8-.831.815.815,0,0,1,.831.8L1.344,27.1a.815.815,0,0,1-.8.831Z" transform="translate(1441.169 59.771) rotate(175.428)" fill="#a2a2a2"/>
      <path id="Path_78431" data-name="Path 78431" d="M19.582,67.257a.815.815,0,0,1-.781-.585L-.782.23A.815.815,0,0,1-.23-.782.815.815,0,0,1,.782-.23L20.364,66.211a.816.816,0,0,1-.782,1.046Z" transform="translate(1458.797 63.667) rotate(-140.38)" fill="#a2a2a2"/>
      <path id="Path_78432" data-name="Path 78432" d="M.9,46.861a.815.815,0,0,1-.814-.8L-.815.016a.815.815,0,0,1,.8-.831.815.815,0,0,1,.831.8l.9,46.046a.815.815,0,0,1-.8.831Z" transform="translate(1485.937 84.28) rotate(-106.356)" fill="#a2a2a2"/>
    </g>
  </g>
</svg>
