<svg xmlns="http://www.w3.org/2000/svg" xmlns:xlink="http://www.w3.org/1999/xlink" width="486" height="271" viewBox="0 0 486 271">
  <defs>
    <clipPath id="clip-path">
      <rect id="Rectangle_34439" data-name="Rectangle 34439" width="486" height="271" transform="translate(-10789 -9323)" fill="#fff"/>
    </clipPath>
  </defs>
  <g id="Mask_Group_390" data-name="Mask Group 390" transform="translate(10789 9323)" clip-path="url(#clip-path)">
    <g id="Group_223540" data-name="Group 223540" transform="translate(-12434.682 -19250.105)">
      <g id="Group_223538" data-name="Group 223538" transform="translate(1646.617 9927.855)">
        <path id="Path_78423" data-name="Path 78423" d="M3117.623,1926.661a300.143,300.143,0,0,1-39.155-2.563,305.453,305.453,0,0,1-91.671-27.215.75.75,0,0,1,.648-1.353,300.776,300.776,0,0,0,129.873,29.741,313.452,313.452,0,0,0,92.534-14.254c99.445-30.593,194.881-109.809,283.655-235.45a.75.75,0,1,1,1.225.866c-12.423,17.582-25.155,34.488-37.842,50.251-12.3,15.284-24.9,29.908-37.436,43.468-12.14,13.128-24.557,25.614-36.906,37.112-11.937,11.114-24.134,21.606-36.253,31.184-11.693,9.242-23.629,17.883-35.477,25.684-11.407,7.511-23.041,14.445-34.576,20.61-11.081,5.922-22.369,11.293-33.551,15.964-10.713,4.475-21.614,8.426-32.4,11.744A314.425,314.425,0,0,1,3117.623,1926.661Z" transform="translate(-2987.121 -1676)" fill="#a2a2a2"/>
      </g>
      <g id="Group_223539" data-name="Group 223539" transform="translate(1774.781 10163)">
        <path id="Path_78424" data-name="Path 78424" d="M5.98,29.089a.747.747,0,0,1-.3-1.434,71.178,71.178,0,0,0,15.905-9.778,28.763,28.763,0,0,0,5.879-6.294c1.355-2.132,1.806-4.024,1.34-5.625C27.891,2.808,25.033,1.122,20.071.8c-4.467-.287-9.917.6-14.3,1.309-2.116.344-4.115.668-5.706.815a.747.747,0,0,1-.813-.676.747.747,0,0,1,.676-.813c1.54-.142,3.514-.462,5.6-.8,4.454-.723,10-1.623,14.632-1.325A15.034,15.034,0,0,1,26.457.88a7.563,7.563,0,0,1,3.786,4.66c.592,2.031.082,4.334-1.513,6.844a30.209,30.209,0,0,1-6.183,6.64,72.812,72.812,0,0,1-16.27,10A.745.745,0,0,1,5.98,29.089Z" transform="matrix(0.973, 0.229, -0.229, 0.973, 6.482, 0)" fill="#a2a2a2"/>
      </g>
    </g>
  </g>
</svg>
