<svg xmlns="http://www.w3.org/2000/svg" width="150.087" height="42.951" viewBox="0 0 150.087 42.951">
  <g id="Group_50386" data-name="Group 50386" transform="translate(0.75 0.75)">
    <path id="Path_78416" data-name="Path 78416" d="M12.944,20.848a58.953,58.953,0,0,1-9.053-.984c-1.479-.24-2.875-.467-3.96-.567a.747.747,0,0,1-.676-.813.747.747,0,0,1,.813-.676c1.136.1,2.558.335,4.062.58a48.623,48.623,0,0,0,10.091.926c3.417-.219,5.38-1.364,6-3.5.606-2.082-1.187-5-5.05-8.226A50.249,50.249,0,0,0,3.945.686.747.747,0,0,1,3.555-.3a.747.747,0,0,1,.982-.39A51.882,51.882,0,0,1,16.131,6.441,21.637,21.637,0,0,1,20.56,11.2a6.137,6.137,0,0,1,1.1,5.032,5.574,5.574,0,0,1-2.79,3.435,10.87,10.87,0,0,1-4.551,1.138C13.87,20.835,13.411,20.848,12.944,20.848Z" transform="matrix(0.834, 0.552, -0.552, 0.834, 130.72, 12.761)" fill="#a2a2a2"/>
    <path id="Path_78417" data-name="Path 78417" d="M2549.521,1847.64a.749.749,0,0,1-.621-.328c-15.937-23.424-38.091-36.323-64.067-37.3-1.064-.04-2.13-.06-3.191-.06-29.99,0-58.637,15.7-70.875,31.063a.75.75,0,0,1-1.173-.935c6.658-8.357,17.776-16.475,30.5-22.273a106.244,106.244,0,0,1,21.367-7.13,93.625,93.625,0,0,1,23.426-2.164,77.885,77.885,0,0,1,34.49,9.268c11.815,6.4,22.165,16.053,30.761,28.688a.75.75,0,0,1-.619,1.172Z" transform="translate(-2410.18 -1809.2)" fill="#a2a2a2"/>
  </g>
</svg>
